<?xml version="1.0" encoding="utf-8"?>
<svg xmlns="http://www.w3.org/2000/svg" version="1.1" width="1000" height="800">

<line x1="0" y1="0" x2="1000" y2="0" stroke="lightgrey" />
<text x="5" y="-5" fill="lightgrey" >0</text>
<line x1="0" y1="100" x2="1000" y2="100" stroke="lightgrey" />
<text x="5" y="95" fill="lightgrey" >100</text>
<line x1="0" y1="200" x2="1000" y2="200" stroke="lightgrey" />
<text x="5" y="195" fill="lightgrey" >200</text>
<line x1="0" y1="300" x2="1000" y2="300" stroke="lightgrey" />
<text x="5" y="295" fill="lightgrey" >300</text>
<line x1="0" y1="400" x2="1000" y2="400" stroke="lightgrey" />
<text x="5" y="395" fill="lightgrey" >400</text>
<line x1="0" y1="500" x2="1000" y2="500" stroke="lightgrey" />
<text x="5" y="495" fill="lightgrey" >500</text>
<line x1="0" y1="600" x2="1000" y2="600" stroke="lightgrey" />
<text x="5" y="595" fill="lightgrey" >600</text>
<line x1="0" y1="700" x2="1000" y2="700" stroke="lightgrey" />
<text x="5" y="695" fill="lightgrey" >700</text>
<line x1="0" y1="800" x2="1000" y2="800" stroke="lightgrey" />
<text x="5" y="795" fill="lightgrey" >800</text>
<line x1="0" y1="0" x2="0" y2="800" stroke="lightgrey" />
<text x="5" y="15" fill="lightgrey" >0</text>
<line x1="100" y1="0" x2="100" y2="800" stroke="lightgrey" />
<text x="105" y="15" fill="lightgrey" >100</text>
<line x1="200" y1="0" x2="200" y2="800" stroke="lightgrey" />
<text x="205" y="15" fill="lightgrey" >200</text>
<line x1="300" y1="0" x2="300" y2="800" stroke="lightgrey" />
<text x="305" y="15" fill="lightgrey" >300</text>
<line x1="400" y1="0" x2="400" y2="800" stroke="lightgrey" />
<text x="405" y="15" fill="lightgrey" >400</text>
<line x1="500" y1="0" x2="500" y2="800" stroke="lightgrey" />
<text x="505" y="15" fill="lightgrey" >500</text>
<line x1="600" y1="0" x2="600" y2="800" stroke="lightgrey" />
<text x="605" y="15" fill="lightgrey" >600</text>
<line x1="700" y1="0" x2="700" y2="800" stroke="lightgrey" />
<text x="705" y="15" fill="lightgrey" >700</text>
<line x1="800" y1="0" x2="800" y2="800" stroke="lightgrey" />
<text x="805" y="15" fill="lightgrey" >800</text>
<line x1="900" y1="0" x2="900" y2="800" stroke="lightgrey" />
<text x="905" y="15" fill="lightgrey" >900</text>
<line x1="1000" y1="0" x2="1000" y2="800" stroke="lightgrey" />
<text x="1005" y="15" fill="lightgrey" >1000</text>
<circle cx="225" cy="85" r="10" fill="red" stroke="red" stroke-width="5" />
<circle cx="175" cy="170" r="10" fill="red" stroke="red" stroke-width="5" />
<circle cx="275" cy="170" r="10" fill="red" stroke="red" stroke-width="5" />
<circle cx="125" cy="255" r="10" fill="red" stroke="red" stroke-width="5" />
<circle cx="225" cy="255" r="10" fill="red" stroke="red" stroke-width="5" />
<circle cx="325" cy="255" r="10" fill="red" stroke="red" stroke-width="5" />
<circle cx="75" cy="340" r="10" fill="red" stroke="red" stroke-width="5" />
<circle cx="175" cy="340" r="10" fill="red" stroke="red" stroke-width="5" />
<circle cx="275" cy="340" r="10" fill="red" stroke="red" stroke-width="5" />
<circle cx="375" cy="340" r="10" fill="red" stroke="red" stroke-width="5" />
<line x1="225" y1="85" x2="175" y2="170" stroke="blue" />
<line x1="225" y1="85" x2="275" y2="170" stroke="blue" />
<line x1="175" y1="170" x2="275" y2="170" stroke="blue" />
<line x1="175" y1="170" x2="125" y2="255" stroke="blue" />
<line x1="175" y1="170" x2="225" y2="255" stroke="blue" />
<line x1="275" y1="170" x2="225" y2="255" stroke="blue" />
<line x1="275" y1="170" x2="325" y2="255" stroke="blue" />
<line x1="125" y1="255" x2="225" y2="255" stroke="blue" />
<line x1="225" y1="255" x2="325" y2="255" stroke="blue" />
<line x1="125" y1="255" x2="75" y2="340" stroke="blue" />
<line x1="125" y1="255" x2="175" y2="340" stroke="blue" />
<line x1="225" y1="255" x2="175" y2="340" stroke="blue" />
<line x1="225" y1="255" x2="275" y2="340" stroke="blue" />
<line x1="325" y1="255" x2="275" y2="340" stroke="blue" />
<line x1="325" y1="255" x2="375" y2="340" stroke="blue" />
<line x1="75" y1="340" x2="175" y2="340" stroke="blue" />
<line x1="175" y1="340" x2="275" y2="340" stroke="blue" />
<line x1="275" y1="340" x2="375" y2="340" stroke="blue" />
<line x1="127" y1="257" x2="227" y2="257" stroke="yellow" />
<line x1="277" y1="172" x2="227" y2="257" stroke="yellow" />
<line x1="127" y1="257" x2="77" y2="342" stroke="yellow" />
<line x1="227" y1="257" x2="177" y2="342" stroke="yellow" />
<line x1="277" y1="172" x2="327" y2="257" stroke="yellow" />
<line x1="177" y1="172" x2="127" y2="257" stroke="yellow" />
<line x1="227" y1="87" x2="177" y2="172" stroke="yellow" />
<line x1="327" y1="257" x2="277" y2="342" stroke="yellow" />
<line x1="327" y1="257" x2="377" y2="342" stroke="yellow" />


</svg>
